<?xml version="1.0" standalone="no"?>
<!DOCTYPE svg PUBLIC "-//W3C//DTD SVG 20010904//EN"
 "http://www.w3.org/TR/2001/REC-SVG-20010904/DTD/svg10.dtd">
<svg version="1.0" xmlns="http://www.w3.org/2000/svg"
 width="700.000000pt" height="700.000000pt" viewBox="0 0 700.000000 700.000000"
 preserveAspectRatio="xMidYMid meet">
<metadata>
Created by potrace 1.14, written by Peter Selinger 2001-2017
</metadata>
<g transform="translate(0.000000,700.000000) scale(0.100000,-0.100000)"
fill="#000000" stroke="none">
<path d="M2903 6982 c-149 -61 -246 -210 -238 -363 8 -148 70 -278 247 -515
84 -113 123 -132 187 -93 25 16 34 6 82 -89 84 -169 26 -306 -168 -398 -220
-103 -261 -126 -307 -171 -65 -64 -92 -107 -110 -173 -39 -150 25 -319 183
-479 62 -62 151 -138 151 -128 0 2 -14 20 -30 38 -17 19 -52 66 -79 104 -219
317 -192 511 89 641 176 82 223 110 280 161 150 137 156 308 17 488 -17 22
-37 44 -44 48 -10 6 -10 14 2 37 28 55 20 85 -48 173 -174 225 -242 369 -228
483 2 24 41 21 83 -5 50 -32 83 -73 128 -157 40 -75 63 -95 102 -89 29 6 68
24 79 37 3 4 29 26 59 48 52 39 89 51 91 30 8 -59 -6 -123 -39 -185 -27 -50
-45 -70 -104 -118 -78 -64 -100 -142 -53 -187 48 -45 122 -15 228 94 169 175
242 444 157 581 -45 72 -154 81 -268 20 -36 -19 -66 -34 -67 -32 -69 104 -117
152 -187 188 -57 29 -141 34 -195 11z"/>
<path d="M3476 6027 c-45 -28 -93 -95 -102 -144 -14 -77 29 -185 126 -319 53
-73 56 -75 91 -71 35 5 37 4 72 -62 20 -37 39 -86 43 -109 9 -58 -17 -123 -66
-164 -40 -35 -48 -39 -201 -111 -151 -72 -223 -156 -235 -276 -14 -127 73
-283 221 -397 66 -51 72 -51 30 1 -59 73 -78 103 -114 177 -32 67 -38 85 -48
148 -14 92 51 182 172 239 39 18 90 42 115 54 105 50 174 120 205 207 31 89
-9 211 -99 301 -19 19 -26 36 -24 57 1 19 -7 42 -23 63 -110 145 -146 219
-140 288 2 19 49 5 72 -22 11 -12 31 -43 46 -69 33 -60 56 -62 124 -12 56 41
74 37 64 -14 -10 -52 -27 -81 -79 -130 -45 -43 -56 -71 -37 -101 15 -23 58
-15 101 19 131 104 185 320 96 382 -20 14 -87 8 -125 -12 l-38 -19 -33 40
c-65 81 -140 100 -214 56z"/>
<path d="M2888 4145 c-2 -2 -41 -6 -88 -10 -47 -3 -96 -7 -110 -9 -14 -2 -50
-6 -80 -10 -487 -61 -951 -232 -1253 -463 -71 -54 -207 -186 -259 -253 -71
-89 -163 -266 -185 -354 -26 -105 -40 -203 -38 -266 4 -100 16 -300 20 -321 2
-10 7 -49 10 -86 4 -37 9 -70 10 -73 2 -3 6 -26 10 -50 8 -60 53 -278 64 -315
5 -16 21 -70 36 -120 96 -329 231 -602 462 -935 72 -104 264 -310 378 -405 33
-27 66 -56 73 -63 28 -25 240 -162 312 -200 72 -38 220 -102 270 -117 3 -1 37
-11 75 -23 39 -11 84 -24 100 -27 175 -34 213 -38 380 -39 183 -1 220 2 361
29 190 36 423 128 601 236 238 145 511 401 673 632 l34 47 25 -24 c67 -62 89
-80 126 -105 133 -89 268 -132 420 -136 324 -7 631 251 760 637 42 126 55 214
50 338 -13 314 -227 603 -523 706 -96 33 -133 39 -245 39 l-97 0 5 25 c7 35
14 79 21 120 3 19 7 42 10 50 14 38 12 268 -2 343 -72 376 -341 684 -793 907
-103 52 -109 54 -286 117 -164 59 -462 129 -625 147 -25 3 -65 8 -90 11 -25 3
-73 8 -105 11 -69 6 -502 14 -507 9z m527 -260 c51 -6 96 -11 175 -21 25 -3
52 -7 60 -9 8 -3 33 -7 55 -10 79 -12 262 -56 360 -87 590 -184 972 -514 984
-851 8 -226 -137 -445 -419 -632 -85 -57 -307 -175 -328 -175 -5 0 -26 -9 -48
-19 -66 -32 -321 -107 -454 -134 -156 -32 -193 -38 -325 -52 -222 -25 -625
-25 -800 0 -107 16 -234 35 -260 40 -62 12 -211 47 -235 55 -14 5 -59 18 -100
31 -158 46 -364 138 -501 223 -249 155 -403 334 -455 528 -28 110 -1 286 57
370 11 14 19 29 19 33 0 17 97 130 167 194 116 107 297 221 454 286 35 14 78
32 94 40 89 39 341 111 492 140 43 8 89 17 102 20 13 2 49 7 80 11 31 3 64 8
74 10 10 2 62 6 115 10 53 3 99 8 101 10 5 5 483 -4 536 -11z m2088 -1945 c97
-49 179 -168 192 -277 12 -112 -36 -274 -116 -388 -45 -65 -77 -95 -137 -132
-70 -42 -175 -37 -272 12 -52 26 -129 111 -156 170 l-23 53 21 53 c11 30 22
61 23 69 2 8 16 60 30 115 15 55 28 107 30 115 2 8 13 54 25 102 l22 88 54 26
c99 48 202 46 307 -6z"/>
<path d="M3369 3566 c-2 -2 -23 -6 -46 -10 -74 -10 -295 -74 -368 -106 -11 -5
-54 -23 -95 -40 -142 -58 -176 -74 -395 -186 -246 -124 -604 -329 -605 -346 0
-13 188 -137 330 -216 449 -253 903 -440 1155 -478 28 -4 118 -8 200 -8 129
-1 160 2 222 22 141 44 233 154 241 289 8 128 -76 231 -265 324 l-107 53 34
14 c207 83 255 112 313 188 46 60 61 113 53 183 -25 209 -206 317 -534 319
-71 1 -131 0 -133 -2z m143 -230 c113 -33 188 -114 191 -209 4 -95 -58 -164
-200 -223 l-76 -32 76 -37 c164 -80 219 -187 157 -303 -27 -51 -39 -64 -80
-89 -54 -32 -101 -43 -190 -47 -86 -3 -149 4 -259 28 -48 11 -189 59 -301 103
-129 50 -475 217 -533 257 -21 14 -41 26 -45 26 -4 0 -24 13 -44 28 -36 28
-36 28 -15 42 152 97 513 287 671 354 117 50 281 104 348 115 76 12 238 5 300
-13z"/>
</g>
</svg>
